<svg version="1.1" id="Layer_1" xmlns="http://www.w3.org/2000/svg" xmlns:xlink="http://www.w3.org/1999/xlink" x="0px" y="0px"
	 viewBox="0 0 384.7 384.8" style="enable-background:new 0 0 384.7 384.8;" xml:space="preserve">

<g>
	<path fill="#FEFEFE" d="M78.7,295.6l0.1-0.2c15.6-0.2,31.2-0.4,46.8-0.6c0.1,3.5,0.3,6.9,0.4,10.4c0,1.7,0.5,2.5,2.4,2.4
		c13.4-0.5,26.9-0.7,40.3-1.7c4.5-0.2,9-0.3,13.4-0.5c39.6-1.5,79.2-3.1,118.8-4.6c9.1-0.3,9.1-0.3,8.5-9.5
		c19.5-2.1,38.9-4.3,58.4-6.2c3-0.3,3.7-1.2,3.6-4.1c-0.4-9.5-0.6-19-0.9-28.5c-1.1-39.7-2.2-79.4-3.3-119.1
		c-0.4-12.5-0.8-25-1.2-37.4c0-1.3,0.6-3.1-2.1-2.8c-11.3,1.1-22.6,2.2-33.9,3c-11.7,0.9-23.3,2.5-35.1,2.8
		c-1.6-22.7-3.3-45.3-4.8-68c-0.2-3-1.4-3.4-4-3.3c-25.6,0.7-51.2,1.4-76.8,2c-19.3,0.5-38.7,0.9-58,1.3
		c-11.7,0.2-23.4,0.4-35.1,0.5c-2.7,0-2.1,1.8-2,3.4c0.3,6.8,0.6,13.7,0.9,20.5c-12.2,0-24.3,0.1-36.5,0.1
		c-20.9-0.1-41.7-0.1-62.6-0.2c-2.3,0-2.7,1-2.6,2.9c0.2,8,0.4,16,0.6,24c0.3,20.6,0.2,41.2,0.8,61.8c0.5,18.2,0.4,36.4,0.7,54.7
		c0.6,30.2,0.7,60.4,1,90.6c0,1.4,0.1,2.8,0,4.1c-0.2,2.2,0.8,2.8,2.9,2.7c3.9-0.1,7.7,0,11.6-0.1c12-0.1,24-0.2,35.9-0.3
		c-1.5,16.3-3.4,32.5-8.5,48.2c-2.5,7.6-2.5,7.5,5,10.2c2,0.7,2.6,0.1,3.1-1.6c1.4-5.3,3-10.6,4.3-15.9
		C74.3,323.2,77.8,309.6,78.7,295.6z"/>
	<path fill="#7ACF02" d="M295,99.1c11.7-0.3,23.4-1.8,35.1-2.8c11.3-0.9,22.6-1.9,33.9-3c2.7-0.3,2.1,1.5,2.1,2.8
		c0.4,12.5,0.9,25,1.2,37.4c1.1,39.7,2.2,79.4,3.3,119.1c0.3,9.5,0.4,19,0.9,28.5c0.1,2.9-0.6,3.8-3.6,4.1
		c-19.5,1.9-39,4.1-58.4,6.2c-5.2,0.5-10.4,1-15.6,1.6c-16.5,1.7-32.9,3.3-49.4,5c0.3-2.4-0.7-4.7-0.8-7
		c-0.4-10.1-1.5-20.1-2.2-30.1c-0.9-14-2-28-3-42c-0.7-10-1.5-20.1-2.2-30.1c-0.9-13.9-2.1-27.7-3-41.6c-0.9-14-1.9-28-3.1-42
		c15.4-1.3,30.8-2.5,46.2-4.1C282.6,100.5,288.9,100.5,295,99.1z M304.9,191.2c1.7,0,3.5,0.1,5.2,0c14.1-0.8,24.3-8.4,28.9-21.6
		c5-14.5,2.1-28.3-8.3-37.4c-10.8-9.4-23.3-12.7-37.3-9.8c-22.1,4.6-33.7,27.7-24,48.2C276.5,185.4,288.8,191.7,304.9,191.2z
		 M350.1,218c-0.2-3.2-0.4-5.8-0.4-8.5c0-1.4-0.5-2.1-2-1.9c-1.4,0.2-2.7,0.2-4.1,0.3c-16.8,1.7-33.5,3.4-50.3,5
		c-10.8,1.1-21.6,2.2-32.4,3.2c-2.5,0.2-3.5,0.9-2.8,3.6c1,4.5,1.7,9.1,2.5,13.6c0.3,1.5,0.5,2.6,2.8,2.4
		c26.1-2.9,52.1-5.5,78.2-8.3c2.8-0.3,6.6,0.5,8.2-1.4C351.5,224.1,349.9,220.4,350.1,218z M298.5,280.3c5.1-0.5,10.3-1,15.5-1.4
		c7.1-0.6,7.1-0.5,6.3-7.4c0-0.4-0.1-0.7-0.1-1.1c0.2-2.8-0.9-3.7-3.8-3.3c-4.5,0.7-9.1,1-13.7,1.5c-8.3,0.8-8.2,0.8-7.3,9.2
		C295.7,279.8,296.2,280.9,298.5,280.3z"/>
	<path fill="#FE605B" d="M295,99.1c-6.1,1.4-12.4,1.4-18.5,2c-15.4,1.5-30.8,2.7-46.2,4.1c-6.3,0.5-12.7,0.9-19,1.4
		c-9.2,0.7-18.4,1.5-27.6,2.3c-1.5,0.1-3,0.4-2.8,2.6c0.6,6.6,1,13.2,1.5,19.8c1.4,18.1,2.9,36.3,4.3,54.4
		c1.1,15.2,2.1,30.4,3.2,45.5c1.7,22.9,3.5,45.8,5.1,68.6c0.2,2.6,1,3.5,3.6,3.2c8.5-0.9,17.1-1.7,25.6-2.7c6.8-0.8,13.6-1,20.3-2.5
		c16.5-1.7,32.9-3.3,49.4-5c5.2-0.5,10.4-1,15.6-1.6c0.5,9.2,0.5,9.2-8.5,9.5c-39.6,1.5-79.2,3.1-118.8,4.6c-4.5,0.2-9,0.3-13.4,0.5
		c-0.1-7.5-0.9-14.9-1.4-22.3c-0.7-11.7-1.5-23.3-2.2-35c-0.9-15.6-2-31.3-3-46.9c-0.8-11.9-1.5-23.8-2.3-35.7c-1-15.5-2-31-3-46.5
		c-1-15.8-1.9-31.5-3-47.3c-1-13.6-1.6-27.3-2.4-41c19.3-0.4,38.7-0.8,58-1.3c25.6-0.6,51.2-1.3,76.8-2c2.5-0.1,3.8,0.3,4,3.3
		C291.7,53.8,293.4,76.5,295,99.1z M174.1,63.8c0.5,8.7,1.1,17.1,1.3,25.6c0.1,3.1,1.2,3.9,4,3.6c5.3-0.6,10.6-1,16-1.5
		c9.8-0.8,19.6-1.5,29.4-2.4c13.1-1.2,26.2-2.5,39.4-3.5c3-0.2,3.8-1.1,3.6-3.9c-0.6-8.2-1.2-16.4-1.4-24.6c-0.1-3.2-1-4.1-4.1-3.8
		c-13,1.1-26.1,2-39.1,3c-14.9,1.1-29.8,2.2-44.7,2.9C174.5,59.3,173.2,60.4,174.1,63.8z"/>
	<path fill="#8B57DC" d="M67,295.9c-12,0.1-24,0.2-35.9,0.3c-3.9,0-7.7-0.1-11.6,0.1c-2,0.1-3.1-0.5-2.9-2.7c0.1-1.4,0-2.7,0-4.1
		c-0.3-30.2-0.4-60.4-1-90.6c-0.4-18.2-0.2-36.5-0.7-54.7c-0.6-20.6-0.4-41.2-0.8-61.8c-0.1-8-0.3-16-0.6-24c-0.1-2,0.3-2.9,2.6-2.9
		c20.8,0.1,41.7,0.2,62.6,0.2c0,78.2,0,156.3,0,234.5c0,1.7,0.1,3.5,0.1,5.2c0,0-0.1,0.2-0.1,0.2C74.8,295.5,70.9,295.4,67,295.9z
		 M63.9,137.4c0.2,0,0.4,0,0.6,0c0-4.2,0-8.5,0-12.7c0-10.9-7-18.3-17.3-18.3c-11.8,0-19,6.9-18.7,18.4c0.3,12.6,0.8,25.2,1.4,37.8
		c0.5,9.3,7.9,16.1,17.3,16c9-0.1,16.4-7.3,16.6-16.4C64,153.9,63.9,145.6,63.9,137.4z M54.6,204.8c0.1,0,0.1,0,0.2,0
		c0-3.4,0-6.7,0-10.1c0-6.6-2.2-8.7-9.3-8.6c-6.2,0-8.3,2.2-8.1,8.8c0.2,7.2,0.4,14.5,0.7,21.7c1,22.1,1.6,44.2,2.3,66.3
		c0.2,4.7,2.4,7.3,6.2,7.3c3.9,0,6.5-2.9,6.6-7.5C53.7,256.8,54.1,230.8,54.6,204.8z M34.2,91.3c-1-1.4-1-2.7-1.2-4
		c-0.4-3-0.8-5.9-1.1-8.9c-0.2-1.9-1.4-2.6-3-2.5c-1.8,0.2-1.1,1.8-1,2.7c0.6,5.6,1.2,11.1,3.1,16.5c1.2,3.5,1.9,3.6,4.3,0.8
		c3.9-4.5,6.5-9.8,8.2-15.4c0.8-2.8,2.3-3.7,5-3.9c4.7-0.3,9.4-0.7,14.2-1c1.7-0.1,2.8-0.3,2.8-2.5c-0.1-2.1-1.4-2-2.8-2
		c-5.9,0-11.7,0.6-17.5,1.3c-2.9,0.3-4.1,1.6-4.9,4.2C38.6,81.7,36.7,86.5,34.2,91.3z"/>
	<path fill="#A269F6" d="M78.9,295.4c0-1.7-0.1-3.5-0.1-5.2c0-78.2,0-156.3,0-234.5c12.2,0,24.3-0.1,36.5-0.1c0.1,1.5,0.2,3,0.3,4.5
		c0.6,14.3,1.1,28.7,1.7,43c1.2,26.7,2.4,53.3,3.6,80c0.6,13.1,1.1,26.2,1.7,39.3c1.1,24.2,2.2,48.3,3.2,72.5
		C110.1,295,94.5,295.2,78.9,295.4z"/>
	<path fill="#BD3435" d="M125.7,294.8c-1.1-24.2-2.2-48.3-3.2-72.5c-0.6-13.1-1.1-26.2-1.7-39.3c-1.2-26.7-2.4-53.3-3.6-80
		c-0.6-14.3-1.1-28.7-1.7-43c-0.1-1.5-0.2-3-0.3-4.5c-0.3-6.8-0.6-13.7-0.9-20.5c-0.1-1.6-0.6-3.4,2-3.4c11.7-0.1,23.4-0.3,35.1-0.5
		c0.8,13.7,1.4,27.3,2.4,41c1.2,15.8,2,31.5,3,47.3c1,15.5,2,31,3,46.5c0.8,11.9,1.5,23.8,2.3,35.7c1,15.6,2.1,31.3,3,46.9
		c0.7,11.7,1.5,23.3,2.2,35c0.5,7.4,1.3,14.9,1.4,22.3c-13.4,1.1-26.8,1.3-40.3,1.7c-1.9,0.1-2.3-0.7-2.4-2.4
		C126,301.8,125.8,298.3,125.7,294.8z M136,93.1c-1.5,0-3,0-4.5,0c-6.6,0-6.6,0-6.3,6.7c0.8,22.7,1.6,45.4,2.2,68.1
		c0.4,14.3,0.9,28.7,1.5,43c0.7,18,1.2,35.9,1.6,53.9c0.1,3.3,1.2,3.9,4.2,3.7c7-0.6,13.9-1.1,20.9-1.4c2.2-0.1,2.6-0.7,2.3-2.9
		c-0.6-5.3-0.7-10.7-1.1-16c-0.8-13.4-1.5-26.9-2.4-40.3c-1.4-21-2.9-42-4.3-63c-0.9-14.1-1.6-28.1-2.5-42.2
		c-0.6-9.4-0.7-9.4-10.2-9.4C137,93.1,136.5,93.1,136,93.1z M120.7,64.4c0,4.9,7.7,13.5,12.3,13.7c0.5,0,1-0.2,1.4-0.4
		c4.3-2.6,8.4-5.5,10.8-10.1c2.1-4,2.1-9-0.3-10.4c-3.8-2.3-6.7,0.1-9.4,2.3c-1.4,1.1-2.1,1.7-3.5,0c-1.9-2.4-4.4-3.4-7.3-2
		C121.9,58.8,120.7,61.3,120.7,64.4z"/>
	<path fill="#FEB124" d="M67,295.9c3.9-0.5,7.8-0.4,11.7-0.2c-1,14-4.5,27.5-7.8,41.1c-1.3,5.3-2.9,10.6-4.3,15.9
		c-0.5,1.8-1.1,2.4-3.1,1.6c-7.5-2.7-7.4-2.6-5-10.2C63.6,328.4,65.5,312.2,67,295.9z"/>
	<path fill="#6CAF01" d="M244.5,297.9c-6.7,1.5-13.5,1.7-20.3,2.5c-8.5,1-17.1,1.7-25.6,2.7c-2.6,0.3-3.4-0.5-3.6-3.2
		c-1.6-22.9-3.4-45.8-5.1-68.6c-1.1-15.2-2-30.4-3.2-45.5c-1.4-18.2-2.9-36.3-4.3-54.4c-0.5-6.6-0.9-13.2-1.5-19.8
		c-0.2-2.2,1.2-2.5,2.8-2.6c9.2-0.8,18.4-1.6,27.6-2.3c6.3-0.5,12.7-0.9,19-1.4c1.2,14,2.1,28,3.1,42c0.9,13.9,2.1,27.7,3,41.6
		c0.7,10,1.5,20.1,2.2,30.1c1,14,2.1,28,3,42c0.6,10,1.8,20,2.2,30.1C243.9,293.2,244.8,295.5,244.5,297.9z M209.7,160.9
		c-3.9-1.2-5,0.5-4.3,4.1c0.2,1.1,0.2,2.2,0.3,3.4c2.4,24.6,4.8,49.2,7.2,73.8c1.4,14.8,2.9,29.5,4.4,44.3c0.1,0.8-0.3,2.1,0.8,2.2
		c2.3,0.2,4.9,0.6,7-0.1c1.5-0.5,0.3-2.9,0.4-4.5c0-0.7-0.1-1.5-0.2-2.2c-1.7-18.3-3.3-36.5-5-54.8c-1.9-20.6-3.9-41.2-5.5-61.9
		C214.6,161.4,213.4,160,209.7,160.9z M207.7,153.1c0,0,0,0.1,0,0.1c4.1-0.2,8.2-0.3,12.3-0.8c4-0.5,5.4-3.9,3-7.1
		c-1.2-1.7-2.6-3.5-4.2-4.7c-4.5-3.3-5.5-7.6-5.1-13c0.5-7.8,0.2-7.8-7.5-6.9c-5.6,0.7-6,0.9-4.8,6.4c1.2,5.5,0.8,10.2-3.6,14.2
		c-1.5,1.3-2.4,3.2-3.6,4.8c-1.2,1.6-1.9,3.2-0.9,5.2c1.1,2,2.9,2.6,5,2.4C201.5,153.5,204.6,153.3,207.7,153.1z"/>
	<path fill="#00AAFC" d="M304.9,191.2c-16.1,0.5-28.4-5.8-35.5-20.7c-9.7-20.4,1.9-43.6,24-48.2c14-2.9,26.6,0.4,37.3,9.8
		c10.4,9.1,13.3,23,8.3,37.4c-4.6,13.2-14.8,20.9-28.9,21.6C308.4,191.3,306.6,191.2,304.9,191.2z"/>
	<path fill="#FCFDFB" d="M350.1,218c-0.1,2.4,1.4,6.1-0.3,8.1c-1.6,1.9-5.4,1.1-8.2,1.4c-26.1,2.8-52.1,5.5-78.2,8.3
		c-2.3,0.2-2.5-0.8-2.8-2.4c-0.8-4.5-1.5-9.1-2.5-13.6c-0.6-2.7,0.4-3.4,2.8-3.6c10.8-1,21.6-2.1,32.4-3.2c16.8-1.7,33.5-3.4,50.3-5
		c1.4-0.1,2.7-0.2,4.1-0.3c1.5-0.2,1.9,0.5,2,1.9C349.7,212.2,349.9,214.8,350.1,218z"/>
	<path fill="#A269F6" d="M298.5,280.3c-2.3,0.6-2.8-0.4-3.1-2.5c-0.9-8.4-1-8.4,7.3-9.2c4.6-0.5,9.2-0.8,13.7-1.5
		c2.9-0.4,3.9,0.5,3.8,3.3c0,0.4,0,0.7,0.1,1.1c0.8,6.9,0.8,6.9-6.3,7.4C308.8,279.3,303.6,279.8,298.5,280.3z"/>
	<path fill="#7ACF020" d="M174.1,63.8c-0.9-3.5,0.4-4.6,4.4-4.8c14.9-0.7,29.8-1.8,44.7-2.9c13-0.9,26.1-1.9,39.1-3
		c3.1-0.3,4,0.6,4.1,3.8c0.2,8.2,0.8,16.4,1.4,24.6c0.2,2.9-0.6,3.7-3.6,3.9c-13.1,1-26.3,2.3-39.4,3.5c-9.8,0.9-19.6,1.6-29.4,2.4
		c-5.3,0.4-10.7,0.9-16,1.5c-2.8,0.3-3.9-0.5-4-3.6C175.2,81,174.6,72.5,174.1,63.8z"/>
	<path fill="#7ACF021" d="M63.9,137.4c0,8.2,0.1,16.5,0,24.7c-0.2,9.1-7.6,16.3-16.6,16.4c-9.4,0.1-16.9-6.6-17.3-16
		c-0.6-12.6-1.1-25.2-1.4-37.8c-0.3-11.5,6.9-18.4,18.7-18.4c10.3,0,17.3,7.4,17.3,18.3c0,4.2,0,8.5,0,12.7
		C64.3,137.4,64.1,137.4,63.9,137.4z"/>
	<path fill="#7ACF022" d="M54.6,204.8c-0.5,26-0.9,52-1.4,77.9c-0.1,4.6-2.8,7.5-6.6,7.5c-3.8,0-6-2.6-6.2-7.3
		c-0.8-22.1-1.4-44.2-2.3-66.3c-0.3-7.2-0.5-14.5-0.7-21.7c-0.2-6.6,1.9-8.8,8.1-8.8c7.1,0,9.3,2,9.3,8.6c0,3.4,0,6.7,0,10.1
		C54.7,204.8,54.6,204.8,54.6,204.8z"/>
	<path fill="#7ACF023" d="M34.2,91.3c2.5-4.8,4.4-9.7,6-14.6c0.8-2.6,2-3.8,4.9-4.2c5.8-0.7,11.6-1.4,17.5-1.3c1.4,0,2.7-0.2,2.8,2
		c0.1,2.2-1.1,2.4-2.8,2.5c-4.7,0.3-9.4,0.7-14.2,1c-2.6,0.1-4.1,1.1-5,3.9C41.7,86.2,39,91.4,35.2,96c-2.4,2.8-3.1,2.7-4.3-0.8
		c-1.8-5.3-2.4-10.9-3.1-16.5c-0.1-0.9-0.8-2.5,1-2.7c1.7-0.2,2.8,0.5,3,2.5c0.3,3,0.8,5.9,1.1,8.9C33.2,88.6,33.2,89.9,34.2,91.3z"
		/>
	<path fill="#7ACF024" d="M136,93.1c0.5,0,1,0,1.5,0c9.5,0,9.6,0,10.2,9.4c0.9,14.1,1.5,28.1,2.5,42.2c1.4,21,2.9,42,4.3,63
		c0.9,13.4,1.6,26.9,2.4,40.3c0.3,5.4,0.5,10.7,1.1,16c0.2,2.2-0.1,2.8-2.3,2.9c-7,0.3-13.9,0.8-20.9,1.4c-2.9,0.3-4.1-0.3-4.2-3.7
		c-0.4-18-0.9-35.9-1.6-53.9c-0.6-14.3-1.1-28.7-1.5-43c-0.6-22.7-1.5-45.4-2.2-68.1c-0.2-6.7-0.3-6.7,6.3-6.7
		C133,93.1,134.5,93.1,136,93.1z"/>
	<path fill="#FCFDFB" d="M120.7,64.4c0-3.2,1.2-5.6,4.1-7c2.9-1.3,5.5-0.3,7.3,2c1.3,1.7,2.1,1.2,3.5,0c2.7-2.2,5.6-4.7,9.4-2.3
		c2.4,1.5,2.4,6.4,0.3,10.4c-2.4,4.6-6.5,7.4-10.8,10.1c-0.4,0.2-0.9,0.5-1.4,0.4C128.4,77.9,120.7,69.3,120.7,64.4z"/>
	<path fill="#7ACF025" d="M209.7,160.9c3.7-0.9,4.9,0.5,5.2,4.3c1.7,20.6,3.7,41.3,5.5,61.9c1.7,18.3,3.3,36.5,5,54.8
		c0.1,0.7,0.2,1.5,0.2,2.2c-0.1,1.5,1.1,3.9-0.4,4.5c-2.1,0.7-4.7,0.4-7,0.1c-1.1-0.1-0.7-1.4-0.8-2.2c-1.5-14.8-3-29.5-4.4-44.3
		c-2.4-24.6-4.8-49.2-7.2-73.8c-0.1-1.1-0.1-2.3-0.3-3.4C204.8,161.4,205.9,159.7,209.7,160.9z"/>
	<path fill="#7ACF025" d="M207.7,153.1c-3.1,0.2-6.2,0.4-9.3,0.6c-2.1,0.1-3.9-0.4-5-2.4c-1.1-2-0.3-3.6,0.9-5.2
		c1.2-1.6,2.1-3.5,3.6-4.8c4.4-4,4.9-8.7,3.6-14.2c-1.2-5.5-0.8-5.7,4.8-6.4c7.8-0.9,8.1-0.9,7.5,6.9c-0.4,5.4,0.7,9.6,5.1,13
		c1.7,1.2,3,3,4.2,4.7c2.4,3.2,1,6.6-3,7.1c-4.1,0.5-8.2,0.5-12.3,0.8C207.7,153.2,207.7,153.1,207.7,153.1z M208,151.7
		c0-0.1,0-0.2,0-0.3c3,0,6,0,9,0c1.9,0,3.8-0.4,4.7-2.4c1-2.1-0.2-3.6-1.5-5c-0.7-0.8-1.5-1.7-2.3-2.5c-0.5-0.6-1.1-1-1.9-0.4
		c-3.4,3-7.3,2-11,1c-4.1-1.1-6.9-0.2-8.9,3.7c-1.9,3.5-0.6,6.3,3.3,6.4C202.2,152.2,205.1,151.9,208,151.7z"/>
	<path fill="#7ACF02" d="M208,151.7c-2.9,0.2-5.7,0.5-8.6,0.5c-4,0-5.2-2.9-3.3-6.4c2.1-3.8,4.8-4.8,8.9-3.7c3.7,1,7.6,2,11-1
		c0.8-0.7,1.4-0.2,1.9,0.4c0.8,0.8,1.5,1.7,2.3,2.5c1.3,1.4,2.5,2.9,1.5,5c-0.9,2-2.8,2.4-4.7,2.4c-3,0.1-6,0-9,0
		C208,151.5,208,151.6,208,151.7z"/>
</g>
</svg>