<svg id="Layer_1" data-name="Layer 1" xmlns="http://www.w3.org/2000/svg" viewBox="0 0 16 10">
    <defs>
        <style>
            .cls-1 {
                fill: none;
            }
            .cls-2 {
                fill: #1aa86e;
            }
        </style>
    </defs>
    <title>logo2</title>
    <g id="Layer_1-2" data-name="Layer 1-2">
        <path class="cls-1" d="M8.5,2.63" transform="translate(0 -0.13)" />
        <path class="cls-1" d="M7.5,2.63" transform="translate(0 -0.13)" />
        <path class="cls-2" d="M9.5.13,8,2.13h6v6H2v-6H8L6.5.13H2a2,2,0,0,0-2,2H0v6a2,2,0,0,0,2,2H14a2,2,0,0,0,2-2v-6a2,2,0,0,0-2-2Z" transform="translate(0 -0.13)" />
        <rect class="cls-2" x="4" y="4" width="2" height="2" />
        <rect class="cls-2" x="10" y="4" width="2" height="2" />
    </g>
</svg>
