<svg version="1.1" id="Layer_1" xmlns="http://www.w3.org/2000/svg" xmlns:xlink="http://www.w3.org/1999/xlink" x="0px" y="0px"
	 viewBox="0 0 161 68" style="enable-background:new 0 0 161 68;" xml:space="preserve">
<g id="XMLID_54_">
	<path id="XMLID_55_" d="M27.3,23c1.7-0.6,3.5-1,5.4-1c3.4,0,6.2,1.3,8.5,4c1.9,2.2,3,4.7,3.3,7.6c0.1,0.5,0.1,1,0.1,1.5
		c0,1.4-0.2,2.9-0.6,4.3c-1.1,4.1-3.1,7.7-5.9,10.9c-3.9,4.5-8.7,7.6-14.3,9.5c-2.4,0.8-4.9,1.3-7.4,1.3h-0.9
		C13,61,11,60.2,9.3,58.5c-1.4-1.4-2-2.9-2-4.8c0-0.4,0-0.7,0.1-1.1c0.3-2,1-3.8,1.9-5.6c0.3-0.7,0.6-1.4,1-2
		c0.1-0.2,0.2-0.4,0.2-0.6v-0.2C10,41,9.8,37.7,9.8,34.5v-1.1c0-2.8,0.1-5.6,0.3-8.5c0.3-3.4,0.8-6.7,1.5-10
		c0.4-1.4,0.8-2.9,1.4-4.3c0.1-0.2,0.1-0.4,0.2-0.5c0.2-0.4,0.5-0.6,0.7-0.6c0.1,0,0.2,0.1,0.2,0.1c0.3,0.1,0.6,0.5,0.6,1v0.2
		c-0.1,0.5-0.3,1-0.5,1.5c-0.1,0.5-0.2,1-0.2,1.5c0,0.4,0.1,0.7,0.2,1.1c0.1,0.1,0.1,0.2,0.1,0.2c0,0.1-0.1,0.2-0.2,0.2h-0.2
		c-0.1,0-0.1-0.1-0.2-0.1c-0.2,0-0.2,0.2-0.3,0.4c-0.3,1.3-0.5,2.5-0.7,3.8c-0.5,3-0.8,6-1,9c0,0.5-0.1,1-0.1,1.4
		c0,0.2,0,0.5,0.1,0.7c0.1-0.2,0.1-0.5,0.1-0.8c0.8-3.7,1.7-7.5,3.2-11c1.3-3,2.8-5.9,4.9-8.5C21,9,22.1,8,23.5,7.2
		c0.8-0.5,1.6-0.7,2.4-0.7c0.8,0,1.5,0.3,2,0.9c1,1,1.4,2.3,1.5,3.7v0.4c0,2-0.5,3.9-1.2,5.8c-0.8,2.1-1.8,4.1-3,6.1
		c-0.1,0.2-0.2,0.3-0.2,0.6C25.8,23.6,26.6,23.3,27.3,23z M18.3,37.3c-0.5,0.5-0.9,1-1.4,1.4c-1.5,1.3-2.7,2.8-3.8,4.4
		c-0.5,0.7-0.8,1.4-0.8,2.2v0.2c0.1,0.1,0.1,0.2,0.1,0.3s0,0.2-0.1,0.4c-0.1,0.4-0.2,0.6-0.6,0.6h-0.2c-0.3,0-0.4,0.2-0.5,0.5
		c-0.5,1.3-0.9,2.6-1.3,3.9c-0.2,1-0.3,1.9-0.3,2.9v0.8c0.1,2.3,1.4,3.8,3.6,4.4c0.8,0.2,1.7,0.3,2.6,0.3h0.5
		c2.2-0.1,4.3-0.4,6.3-1.1c5.7-1.9,10.5-5.2,14.3-9.8c2.6-3.2,4.6-6.8,5.5-10.9c0.2-1.1,0.4-2.3,0.4-3.4c0-2.6-0.8-5-2.3-7.4
		c-0.9-1.3-2.2-2.2-3.7-2.8c-1.2-0.4-2.4-0.7-3.6-0.7c-0.8,0-1.7,0.1-2.6,0.3c-2.6,0.6-5,1.7-7.3,3.2c-0.6,0.4-1.1,0.8-1.6,1.4
		c-0.9,1.2-1.8,2.3-2.9,3.4c-0.2,0.2-0.4,0.5-0.7,0.6c-0.2,0.1-0.4,0.2-0.5,0.2c-0.1,0-0.2-0.1-0.4-0.1c-0.6-0.3-0.9-0.6-0.9-1
		c0-0.3,0.2-0.7,0.4-1c0.1-0.1,0.1-0.1,0.1-0.2c1-1.2,2-2.3,3.3-3.2c0.4-0.3,0.7-0.6,0.9-1c1.8-2.5,3.4-5,4.6-7.7
		c1-2.1,1.8-4.2,2-6.5v-0.7c0-0.8-0.1-1.6-0.3-2.3c-0.2-0.7-0.5-0.9-1-0.9c-0.2,0-0.4,0-0.5,0.1c-0.6,0.2-1.1,0.5-1.6,0.9
		c-1,0.7-1.9,1.6-2.7,2.6c-1.8,2.2-3.2,4.6-4.3,7.2c-1.7,3.8-2.8,7.8-3.6,11.8c-0.8,3.4-1,6.8-1.2,10.3V41c0,0.1,0,0.2,0.1,0.2
		c0.9-1,1.7-1.9,2.7-2.8c0.8-0.7,1.6-1.3,2.5-1.7c0.2-0.1,0.5-0.2,0.8-0.2h0.1C18.7,36.9,18.5,37.1,18.3,37.3z"/>
	<path id="XMLID_58_" d="M56.2,31.1c1,2,1.4,4.1,1.5,6.3c0.1,0.7,0.1,1.3,0.1,2c0,1.4-0.1,2.8-0.5,4.3c-0.3,1.1-0.7,2.3-1.5,3.2
		c-0.8,0.8-1.6,1.4-2.7,1.4c-0.2,0-0.4,0-0.5-0.1c-1.3-0.2-2.5-0.8-3.3-1.8c-0.8-1.1-1.3-2.3-1.4-3.6c0-0.5-0.1-0.9-0.1-1.3
		c0-3.1,0.8-6.1,2.2-8.8c0.3-0.5,0.6-1,1-1.4c0.3-0.3,0.6-0.5,1-0.6c0.1-0.1,0.3-0.1,0.4-0.1c0.6,0,1.1,0.3,1.5,0.9
		c0.1,0.1,0.1,0.2,0.1,0.2c0,0.1-0.1,0.2-0.2,0.2c-1.2,0.5-1.6,1.7-2.1,2.9c-1,2.3-1.4,4.7-1.4,7.2v0.4c0,1.3,0.3,2.5,0.9,3.5
		c0.4,0.6,1,1,1.6,1c0.4,0,0.8-0.2,1.2-0.5c0.5-0.4,0.8-0.9,1.1-1.4c0.7-1.1,1-2.5,1.1-3.8c0.1-1,0.2-1.9,0.2-2.9
		c0-1.5-0.2-3.1-0.7-4.6c-0.5-1.8-1.3-3.5-2.6-5c-0.1-0.2-0.3-0.3-0.3-0.5c0-0.1,0-0.2,0.1-0.2c0.1-0.1,0.4-0.2,0.6-0.2
		c0.2,0,0.3,0.1,0.4,0.1c0.3,0.2,0.5,0.4,0.7,0.6c0.5,0.7,1.3,0.9,2,1c0.4,0.1,0.7,0.1,1,0.1c1,0,1.9-0.1,2.8-0.2
		c0.5,0,0.9-0.1,1.3-0.1c0.2-0.1,0.4-0.2,0.4-0.4v-0.1c0-0.1-0.1-0.2-0.1-0.3c0-0.8,0.7-1.5,1.4-1.7c0.7-0.3,1.4-0.4,2.1-0.4
		c1.1,0,2.1,0.4,3.1,1c1.7,1.2,2.9,2.9,3.6,4.9c0.5,1.7,0.7,3.4,0.7,5.1c0,0.8-0.1,1.7-0.1,2.6c-0.2,1.9-0.5,3.7-1.3,5.5
		c-0.5,1.1-1.2,2.2-2.2,2.9c-0.7,0.5-1.4,0.7-2.2,0.7c-0.3,0-0.6-0.1-0.9-0.1c-2.2-0.5-3.5-1.9-4.1-4.1c-0.3-1.1-0.4-2.3-0.4-3.4
		c0-0.7,0.1-1.4,0.1-2.1c0.2-2.7,0.9-5.3,1.6-7.9c0.1-0.2,0.2-0.4,0.2-0.6c0-0.1-0.1-0.2-0.1-0.2c-0.4-0.3-0.6-0.7-1.1-0.7h-0.1
		c-0.5,0-1.1,0.1-1.6,0.1c-1.2,0.2-2.4,0.3-3.6,0.3h-0.7c-0.1,0-0.2,0-0.3,0.1v0.1C56,30.8,56.1,30.9,56.2,31.1z M67.8,30.6
		L67.8,30.6c0,0.2-0.1,0.3-0.2,0.4c-0.5,0.2-0.9,0.3-1.4,0.3c-0.8,0.1-0.8,0.1-1,0.8c-0.3,1.4-0.5,2.7-0.8,4.1
		c-0.3,1.8-0.5,3.6-0.5,5.4c0,0.8,0.1,1.6,0.2,2.5c0.2,1.3,0.5,2.4,1.4,3.3c0.4,0.4,0.8,0.5,1.2,0.5c0.3,0,0.6-0.1,0.8-0.2
		c0.4-0.2,0.7-0.4,0.9-0.7c0.4-0.5,0.8-1.1,1.1-1.7c1-2.5,1.4-5,1.4-7.7c0-1.2-0.1-2.4-0.3-3.7c-0.2-1.3-0.6-2.6-1.3-3.7
		c-0.7-1.2-1.6-1.9-2.9-2h-0.2c-0.6,0-1.1,0.2-1.7,0.5c-0.1,0.1-0.2,0.2-0.2,0.2s0.1,0.2,0.2,0.2c0.4,0.2,0.7,0.5,0.9,0.9
		c0.1,0.2,0.3,0.4,0.6,0.4h1.5C67.6,30.3,67.8,30.3,67.8,30.6z"/>
	<path id="XMLID_61_" d="M83.9,38.1c-1.1,2.8-1.7,5.6-2.3,8.5v0.3c0,0.4,0.1,0.9,0.2,1.3c0.1,0.2,0.1,0.4,0.1,0.6
		c0,0.5-0.2,0.7-0.7,0.7c-0.1,0-0.3-0.1-0.5-0.1c-0.7-0.1-1-0.4-1.3-1c-0.9-2-1.5-4.2-1.9-6.4c-0.5-3.5-0.8-7-0.8-10.6
		c0-1.1,0-2.2,0.1-3.2c0.2-3.4,0.4-6.8,1.3-10.1c0.2-1,0.6-2,1.1-2.9c0.4-0.7,1-1.1,1.7-1.4c0.2-0.1,0.4-0.1,0.5-0.1
		c0.4,0,0.7,0.1,1,0.3c0.8,0.5,1.1,1.3,1.1,2.1c0,0.2,0,0.5-0.1,0.7c-0.2,1.3-0.7,2.5-1.1,3.8c-0.5,1.4-1.1,2.8-1.9,4
		c-0.2,0.4-0.5,0.9-0.9,1.1c-0.2,0.2-0.4,0.4-0.4,0.7c-0.1,0.7-0.1,1.5-0.1,2.2v4.9c0.2,3.4,0.5,6.8,1.1,10.3
		c0.1,0.1,0.1,0.3,0.1,0.5c0.1,0,0.1,0,0.1,0.1c0.2-0.8,0.3-1.6,0.5-2.3c0.7-3.2,1.8-6.4,3.5-9.2c1.1-1.9,2.5-3.7,4.3-5
		c0.8-0.6,1.6-1,2.5-1.3c0.3-0.1,0.5-0.1,0.8-0.1c0.6,0,1.2,0.2,1.7,0.8c0.3,0.4,0.5,0.7,0.5,1.1c0,0.1-0.1,0.2-0.1,0.4
		c-0.1,0.4-0.2,0.7-0.4,1.1c-1.1,2.7-3.1,4.7-5.7,5.9c-0.4,0.2-0.9,0.3-1.3,0.4c-0.5,0.1-0.7,0.2-0.7,0.4c0,0.1,0.1,0.3,0.2,0.5
		c0.4,0.9,0.7,1.7,1.1,2.6c0.8,1.9,1.8,3.7,3.1,5.4c0.2,0.3,0.5,0.5,0.7,0.8c0.1,0.1,0.2,0.1,0.4,0.1c0.1,0,0.2,0,0.4-0.1
		c0.4-0.2,0.6-0.5,0.9-0.9c0.5-0.7,0.9-1.4,1.3-2.1c1.4-2.6,2.6-5.2,3.5-8c0.2-0.5,0.4-1.1,0.7-1.5c0.1-0.1,0.1-0.2,0.2-0.2
		c0.1,0,0.1,0.1,0.1,0.1c0.1,0.1,0.1,0.2,0.1,0.3c0,0.5-0.1,1-0.2,1.4c-0.7,2.3-1.6,4.6-2.5,6.7c-0.4,1-0.9,1.9-1.4,2.9
		c-0.2,0.5-0.5,1-0.9,1.4c-0.6,0.8-1.3,1.1-2,1.1c-0.7,0-1.4-0.3-2-0.8c-0.7-0.6-1.2-1.4-1.7-2.2c-1.1-1.9-2-3.8-2.8-5.8
		c-0.2-0.4-0.4-0.8-0.6-1.3h-0.2C84.2,37.4,84,37.7,83.9,38.1z M79.5,23.3c1-2.3,1.8-4.6,1.9-7.1C80.2,18.4,79.7,20.8,79.5,23.3z
		 M92.1,27.7L92,27.8c-0.5,0.1-1.1,0.5-1.6,0.8c-1.7,1.2-3,2.9-4.1,4.6c-0.2,0.3-0.3,0.5-0.5,0.8c-0.1,0.1-0.1,0.2-0.1,0.3
		c0,0.1,0,0.1,0.1,0.1c0.1,0.1,0.1,0.1,0.2,0.1c0.1,0,0.2-0.1,0.2-0.1c0.5-0.1,0.9-0.3,1.4-0.5c2-1.1,3.5-2.8,4.4-4.9
		c0.2-0.4,0.3-0.9,0.3-1.3C92.3,27.8,92.3,27.7,92.1,27.7z"/>
	<path id="XMLID_65_" d="M98.9,22c0.5-2.1,1.4-4.1,2.9-5.8c1.7-1.9,3.8-3.1,6.4-3.2h0.2c1,0,1.9,0.3,2.6,1c0.9,1,1.4,1.9,1.4,3.1
		c0,0.3-0.1,0.7-0.1,1c-0.2,1.4-0.7,2.7-1.3,3.9c-1.6,3.3-3.6,6.2-6.2,8.7c-1.3,1.3-2.8,2.2-4.6,2.4c-0.4,0.1-0.5,0.2-0.5,0.6v2.8
		c0.2,2.2,0.3,4.3,0.8,6.3c0.2,1.4,0.7,2.7,1.3,4c0.2,0.4,0.5,0.8,0.8,1.3c0.4,0.7,1,1,1.6,1c0.4,0,0.7-0.1,1.1-0.3
		c1-0.5,1.7-1.3,2.5-2c1.4-1.6,2.6-3.2,3.7-5c0.2-0.4,0.5-0.7,0.7-1c0.1-0.1,0.2-0.1,0.2-0.1h0.1c0.1,0.1,0.1,0.2,0.1,0.3v0.2
		c0,0.4-0.1,0.7-0.3,1.1c-0.4,0.9-1,1.8-1.5,2.6c-1,1.5-2,2.9-3.3,4c-0.7,0.6-1.4,1.1-2.2,1.3c-0.4,0.1-0.8,0.1-1.1,0.1
		c-1.4,0-2.5-0.6-3.5-1.7c-1-1.1-1.6-2.6-2-4.1c-0.5-1.7-0.8-3.5-1-5.3c-0.1-1.7-0.2-3.3-0.2-4.9C97.5,30,97.8,26,98.9,22z
		 M99.9,32.1c0.1,0,0.3-0.1,0.5-0.1c1-0.4,1.7-0.9,2.5-1.6c1.6-1.4,2.9-3.1,4.1-4.8c1.5-2.2,2.8-4.6,3.3-7.3
		c0.1-0.5,0.2-1.1,0.2-1.6c0-0.4,0-0.7-0.1-1.1c-0.2-0.8-0.5-1.1-1.3-1.1c-1.3,0-2.5,0.5-3.5,1.1c-2,1.3-3.2,3.2-4,5.3
		c-1.3,3.2-1.7,6.6-1.9,10.1v0.1C99.7,31.9,99.7,32.1,99.9,32.1z"/>
	<path id="XMLID_68_" d="M112.7,49.2c-0.5-1-0.8-2.1-0.9-3.2c-0.3-2-0.4-4-0.4-6c0-1.3,0-2.6,0.1-3.8c0.1-1.7,0.2-3.5,0.5-5.2
		l0.2-0.7c0.2-0.4,0.5-0.7,0.9-0.7c0.2,0,0.5,0.1,0.7,0.2l0.4,0.4c0.3,0.2,0.4,0.5,0.4,0.8c0,0.1,0,0.3-0.1,0.5
		c-0.4,1.2-0.4,2.5-0.5,3.7c-0.2,1.6-0.2,3.2-0.2,4.9c0,0.8,0.1,1.6,0.1,2.5c0.1,1.9,0.2,3.8,0.6,5.7c0.1,0.4,0,0.8,0.4,0.9h0.1
		c0.3,0,0.5-0.4,0.7-0.7c0.5-0.6,1-1.3,1.5-1.9c0.1-0.2,0.3-0.3,0.4-0.4s0.3-0.3,0.5-0.3c0.1,0,0.1,0.1,0.1,0.1
		c0.1,0.1,0.1,0.2,0.1,0.3s0,0.2-0.1,0.4c-0.5,1.4-1.3,2.6-2.3,3.6c-0.3,0.2-0.6,0.4-1,0.4C114,50.3,113.2,50.1,112.7,49.2z
		 M113.7,20.9c0.3-0.5,0.7-0.7,1.1-0.7c0.5,0,0.9,0.2,1.3,0.8c0.3,0.5,0.5,1,0.5,1.6c0,0.2-0.1,0.5-0.1,0.8c-0.2,0.9-0.5,1.9-1,2.7
		c-0.1,0.3-0.3,0.5-0.5,0.8c-0.2,0.3-0.5,0.5-0.8,0.5c-0.3,0-0.6-0.2-0.8-0.4c-0.7-0.6-0.8-1.4-0.8-2.4
		C112.7,23.4,112.9,22.1,113.7,20.9z"/>
	<path id="XMLID_71_" d="M116.7,52.5c-0.2-0.8-0.4-1.6-0.4-2.3c0-0.8,0.2-1.7,0.5-2.5c0.7-1.7,1.7-3.2,2.9-4.5
		c0.8-0.8,1.6-1.6,2.4-2.3c0.3-0.2,0.5-0.4,0.5-0.5s-0.1-0.3-0.4-0.6c-0.8-1-1.7-2-2.4-3.1c-0.7-1-1.1-2.1-1.1-3.3v-0.4
		c0-1.4,0.6-2.7,1.4-3.8c1.3-1.7,2.9-3,4.9-3.9c0.6-0.3,1.3-0.5,2-0.7c0.3-0.1,0.6-0.1,1-0.1c1,0.1,1.6,1,1.6,1.9
		c0,0.1,0,0.3-0.1,0.5c-0.2,0.7-0.7,1.4-1,2.1c-0.1,0.1-0.2,0.2-0.3,0.2c-0.2-0.1-0.2-0.2-0.3-0.3v-0.2c0-0.2,0.1-0.4,0.1-0.5
		c0.2-0.5,0.4-1.1,0.5-1.6v-0.2c0-0.2-0.1-0.3-0.2-0.3c-0.1,0-0.1,0.1-0.2,0.1c-0.3,0.1-0.5,0.2-0.8,0.3c-2.2,1.2-4.1,2.7-5.4,4.8
		c-0.4,0.8-0.8,1.5-1,2.3c-0.1,0.3-0.1,0.6-0.1,0.8c0,0.7,0.2,1.4,0.7,2c0.5,0.8,1.3,1.6,1.9,2.3c0.2,0.3,0.4,0.4,0.5,0.4
		c0.2,0,0.3-0.1,0.6-0.3c2.1-1.6,4.3-3,6.7-4.1c1.4-0.7,2.8-1.3,4.3-1.6c0.2-0.1,0.4-0.1,0.7-0.1h0.3c0.1,0,0.2,0.1,0.2,0.2
		c0,0.1-0.1,0.2-0.1,0.2c-0.2,0.1-0.5,0.2-0.7,0.4c-1.3,0.5-2.6,1-3.8,1.6c-2.3,1.3-4.6,2.7-6.7,4.3c-0.3,0.2-0.4,0.3-0.4,0.4
		s0.1,0.3,0.4,0.5c1.3,1.4,2.8,2.8,4,4.4c0.7,0.8,1.2,1.6,1.7,2.5c0.5,0.9,0.7,1.8,0.7,2.6c0,1.3-0.5,2.6-1.5,3.7
		c-1.7,1.9-3.8,2.9-6.4,3h-0.2C121.1,57.2,117.8,55.4,116.7,52.5z M128.7,47.8c-0.4-0.9-0.8-1.7-1.4-2.5c-1-1.2-2.1-2.3-3.2-3.4
		c-0.2-0.2-0.3-0.3-0.4-0.3c-0.1,0-0.2,0.1-0.5,0.3c-0.9,0.8-1.7,1.6-2.5,2.5c-0.9,1-1.7,2.1-2.2,3.4c-0.4,0.9-0.6,1.9-0.6,2.8
		c0,0.4,0.1,0.8,0.1,1.3c0.7,2.6,2.5,4,5,4h0.5c2.5-0.2,4.3-1.6,5.3-3.9c0.2-0.6,0.4-1.2,0.4-1.9C129.2,49.3,129,48.5,128.7,47.8z"
		/>
	<path id="XMLID_74_" d="M125.7,19.4v0.5c0,0.8,0.2,1.7,0.5,2.5c0.5,1.3,1.6,1.9,2.9,2c0.3,0,0.5,0.1,0.8,0.1c1.4,0,2.8-0.4,4.2-0.8
		c0.5-0.2,1-0.4,1.6-0.6c0.4-0.1,0.5-0.4,0.6-0.8c0.3-1.8,0.7-3.6,1.2-5.3c0.3-0.9,0.7-1.9,1.2-2.7c0.2-0.4,0.6-0.6,1-0.7
		c0.4,0,0.7,0.1,0.9,0.4c0.4,0.4,0.6,0.8,0.6,1.3c0,0.4-0.2,0.8-0.5,1.1c-0.9,0.9-1.2,2-1.4,3.1c-0.2,0.7-0.4,1.4-0.4,2.2
		c0.1,0,0.1,0.1,0.2,0.1c0.1,0,0.3-0.1,0.4-0.2c2-0.7,4.1-1.5,6.3-1.9c1-0.2,1.9-0.3,2.9-0.3c1.3,0,2.5,0.2,3.7,0.7
		c0.9,0.4,1.6,0.9,2,1.8c0.1,0.4,0.2,0.7,0.2,1.1c0,0.4-0.1,0.8-0.3,1.2c-0.1,0.1-0.1,0.2-0.2,0.3c-0.1,0.1-0.2,0.2-0.3,0.2h-0.1
		c-0.2-0.1-0.2-0.2-0.2-0.3v-1.7c0-0.7-0.3-1.2-1-1.4c-0.7-0.3-1.4-0.5-2.2-0.5c-0.4-0.1-0.8-0.1-1.1-0.1c-1.2,0-2.3,0.1-3.5,0.4
		c-2.3,0.5-4.5,1.4-6.7,2.3c-0.4,0.2-0.5,0.5-0.6,0.9c-0.5,3.7-0.7,7.3-0.7,11c0,1.9,0.1,3.7,0.1,5.5c0.1,2.4,0.3,4.9,1,7.2
		c0.3,1,0.7,2,1.3,2.9c0.2,0.5,0.5,0.7,0.7,0.7c0.2,0,0.5-0.2,0.8-0.5c0.4-0.4,0.7-0.8,1-1.2c0.1-0.1,0.2-0.2,0.3-0.2
		c0.1,0,0.1,0,0.2,0.1c0.2,0.1,0.2,0.2,0.2,0.3c0,0.1-0.1,0.2-0.1,0.2c-0.2,1-0.7,1.9-1.7,2.2c-0.3,0.1-0.6,0.2-0.9,0.2
		c-0.6,0-1.1-0.2-1.7-0.7s-0.9-1-1.2-1.6c-1.2-2.2-1.8-4.4-2.1-6.8c-0.3-2.6-0.4-5.4-0.4-8v-1.6c0.1-2.9,0.2-5.9,0.6-8.8
		c0.1-0.2,0.1-0.3,0.1-0.4c0-0.1-0.1-0.2-0.1-0.2c-0.1,0-0.2,0.1-0.4,0.1c-1.1,0.4-2.2,0.8-3.4,0.9c-0.6,0.1-1.3,0.2-1.9,0.2
		c-0.4,0-0.7,0-1-0.1c-2-0.4-3.5-1.4-4.4-3.3c-0.4-0.9-0.7-1.9-0.7-2.9c0-0.4,0.1-0.8,0.1-1.1c0-0.2,0.1-0.4,0.2-0.5
		c0.2-0.4,0.5-0.5,0.8-0.5c0.2,0,0.4,0.1,0.6,0.3c0.6,0.5,0.8,1.3,1.1,1.9v0.1c0,0.1-0.1,0.1-0.1,0.2h-0.1c-0.1,0-0.1,0-0.2-0.1
		c-0.2-0.2-0.4-0.4-0.7-0.6C125.7,19.1,125.7,19.2,125.7,19.4z"/>
	<path id="XMLID_76_" d="M148.1,48.7L148.1,48.7c-0.6,0-1.3-0.5-1.6-1c-0.1-0.2-0.2-0.5-0.2-0.8c0-0.5,0.2-1.1,0.7-1.3
		c0.2-0.1,0.4-0.2,0.5-0.2c0.2,0,0.5,0.1,0.7,0.3c0.5,0.4,0.7,0.7,0.7,1.2v0.4C149,48.1,148.7,48.6,148.1,48.7z"/>
</g>
</svg>